<svg width="100" height="100" viewBox="0 0 100 100" fill="none" xmlns="http://www.w3.org/2000/svg">
<mask id="mask0_686_12767" style="mask-type:luminance" maskUnits="userSpaceOnUse" x="28" y="13" width="46" height="42">
<path d="M73.7066 13.2932H28.512V54.6532H73.7066V13.2932Z" fill="white"/>
</mask>
<g mask="url(#mask0_686_12767)">
<path d="M59.7014 31.2345C61.856 31.2345 63.6027 29.4879 63.6027 27.3332C63.6027 25.1785 61.856 23.4292 59.7014 23.4292C57.5467 23.4292 55.8 25.1759 55.8 27.3332C55.8 29.4879 57.544 31.2345 59.7014 31.2345Z" fill="#6E199F"/>
</g>
<mask id="mask1_686_12767" style="mask-type:luminance" maskUnits="userSpaceOnUse" x="28" y="13" width="46" height="42">
<path d="M73.7066 13.2932H28.512V54.6532H73.7066V13.2932Z" fill="white"/>
</mask>
<g mask="url(#mask1_686_12767)">
<path d="M59.9707 13.4186C59.2907 13.3946 58.6054 13.4159 57.9254 13.4906C67.3334 15.6106 67.176 25.1999 65.8667 28.8186C65.8587 28.8399 65.8507 28.8612 65.8454 28.8826C65.2747 30.4399 64.336 32.1199 62.872 33.0026C60.9014 34.1866 58.32 33.5199 56.5627 32.2559C52.0107 28.9839 50.5414 22.0026 44.104 21.3039C41.808 21.0559 40.1067 22.0826 40.1067 22.0826C40.1067 22.0826 46.264 24.3599 50.736 33.9786C54.0507 41.1119 53.3574 49.1786 52.5174 53.7839C56.9814 51.4052 61.4934 48.8159 65.0267 45.1812C68.68 41.4239 71.4507 36.6079 72.3334 31.4052C73.7334 23.1466 69.1414 13.7546 59.9707 13.4186Z" fill="#6E199F"/>
</g>
<mask id="mask2_686_12767" style="mask-type:luminance" maskUnits="userSpaceOnUse" x="28" y="13" width="46" height="42">
<path d="M73.7066 13.2932H28.512V54.6532H73.7066V13.2932Z" fill="white"/>
</mask>
<g mask="url(#mask2_686_12767)">
<path d="M43.9361 44.8771C42.5067 44.1784 41.3467 43.3704 39.6987 41.8291C41.7387 45.5678 45.9681 48.3704 50.7361 49.8451C50.7361 48.4131 50.4081 47.7144 49.0854 46.9598C47.4774 46.0371 45.5974 45.6904 43.9361 44.8771Z" fill="#E3AE3B"/>
</g>
<mask id="mask3_686_12767" style="mask-type:luminance" maskUnits="userSpaceOnUse" x="28" y="13" width="46" height="42">
<path d="M73.7066 13.2932H28.512V54.6532H73.7066V13.2932Z" fill="white"/>
</mask>
<g mask="url(#mask3_686_12767)">
<path d="M40.6321 40.7012C42.6587 43.2158 45.8107 44.4505 49.2934 45.3465C49.2934 43.4132 47.2801 42.7518 46.0401 42.6052C43.2987 42.2745 40.6321 40.7012 40.6321 40.7012Z" fill="#E3AE3B"/>
</g>
<mask id="mask4_686_12767" style="mask-type:luminance" maskUnits="userSpaceOnUse" x="28" y="13" width="46" height="42">
<path d="M73.7066 13.2932H28.512V54.6532H73.7066V13.2932Z" fill="white"/>
</mask>
<g mask="url(#mask4_686_12767)">
<path d="M43.736 47.6503C41.112 45.8316 39.4107 44.1729 38.584 41.0929C38.3147 40.0956 38.2294 38.8876 38.9787 38.1756C39.6134 37.5703 40.616 37.5756 41.4694 37.7809C42.3227 37.9863 43.1494 38.3569 44.0267 38.3623C44.904 38.3676 46.2054 37.9783 46.3094 37.1063C44.296 34.9009 41.552 33.3729 38.616 32.8263C37.8934 32.6903 37.192 32.5623 36.52 32.3756C35.4694 32.0876 34.496 31.6556 33.6347 30.8396C32.4534 29.7196 31.7094 28.2236 31.2454 26.6823C30.6534 24.7143 30.4934 22.5889 30.7414 20.5303C29.0854 23.7703 28.512 27.7009 29.1387 31.4049C30.0214 36.6076 32.792 41.4236 36.4454 45.1809C40.4507 49.3009 45.712 52.0769 50.736 54.7303C51.488 50.6103 48.0134 50.6103 43.736 47.6503Z" fill="#E3AE3B"/>
</g>
<mask id="mask5_686_12767" style="mask-type:luminance" maskUnits="userSpaceOnUse" x="28" y="13" width="46" height="42">
<path d="M73.7066 13.2932H28.512V54.6532H73.7066V13.2932Z" fill="white"/>
</mask>
<g mask="url(#mask5_686_12767)">
<path d="M64.6668 18.7891C63.2908 16.2771 60.9895 14.6424 57.8268 13.9277L56.7175 13.6771C54.4188 14.1437 52.2641 15.2264 50.7361 17.0664C48.4988 14.3704 44.9121 13.2904 41.5015 13.4157C36.8908 13.5837 33.4401 16.0397 31.3228 19.4904L31.1895 20.5811C30.9441 22.6051 31.1121 24.6664 31.6775 26.5491C32.1815 28.2291 32.9441 29.5597 33.9441 30.5091C34.5868 31.1197 35.3335 31.5357 36.3388 31.8477C36.0668 31.0371 35.8428 30.2131 35.6935 29.3677C35.2615 26.9437 35.4801 24.3197 36.7761 22.2264C38.2081 19.9091 40.9441 18.4637 43.6668 18.5864C46.3868 18.7091 49.5175 20.3491 50.7388 22.7837C51.9575 20.3517 55.0908 18.7091 57.8108 18.5864C60.5335 18.4637 63.2695 19.9091 64.7015 22.2264C65.4721 23.4717 65.8615 24.9011 65.9601 26.3651C66.2215 24.1651 66.0295 21.2744 64.6668 18.7891Z" fill="#6E199F"/>
</g>
<path d="M19.4724 74.5105L17.2636 70.4085H16.9323V74.5105H13.84V63.3878H18.7151C19.6091 63.3878 20.3664 63.5455 20.987 63.8611C21.6075 64.1661 22.0756 64.5921 22.3911 65.139C22.7067 65.6754 22.8644 66.2802 22.8644 66.9534C22.8644 67.7107 22.6541 68.3785 22.2334 68.957C21.8232 69.525 21.2184 69.9299 20.419 70.1718L22.9275 74.5105H19.4724ZM16.9323 68.2944H18.4627C18.8834 68.2944 19.1989 68.1945 19.4093 67.9946C19.6197 67.7948 19.7248 67.5056 19.7248 67.1269C19.7248 66.7693 19.6144 66.4906 19.3935 66.2907C19.1832 66.0804 18.8729 65.9752 18.4627 65.9752H16.9323V68.2944ZM29.6033 74.6209C28.562 74.6209 27.6049 74.379 26.7319 73.8952C25.8589 73.4009 25.1647 72.7224 24.6493 71.86C24.1445 70.987 23.892 70.0036 23.892 68.9097C23.892 67.8158 24.1445 66.8377 24.6493 65.9752C25.1647 65.1022 25.8589 64.4238 26.7319 63.94C27.6049 63.4561 28.562 63.2142 29.6033 63.2142C30.6551 63.2142 31.6122 63.4561 32.4747 63.94C33.3477 64.4238 34.0366 65.1022 34.5414 65.9752C35.0463 66.8377 35.2987 67.8158 35.2987 68.9097C35.2987 70.0036 35.0463 70.987 34.5414 71.86C34.0366 72.7224 33.3477 73.4009 32.4747 73.8952C31.6017 74.379 30.6446 74.6209 29.6033 74.6209ZM29.6033 71.7495C30.3921 71.7495 31.0127 71.4918 31.4649 70.9765C31.9277 70.4611 32.1591 69.7722 32.1591 68.9097C32.1591 68.0262 31.9277 67.332 31.4649 66.8271C31.0127 66.3118 30.3921 66.0541 29.6033 66.0541C28.8039 66.0541 28.1781 66.3118 27.7258 66.8271C27.2736 67.332 27.0474 68.0262 27.0474 68.9097C27.0474 69.7827 27.2736 70.4769 27.7258 70.9922C28.1781 71.4971 28.8039 71.7495 29.6033 71.7495ZM40.8855 74.6209C39.5918 74.6209 38.5295 74.3159 37.6986 73.7059C36.8676 73.0853 36.4206 72.2018 36.3575 71.0554H39.6549C39.6864 71.4445 39.8021 71.7285 40.002 71.9073C40.2018 72.0861 40.4595 72.1755 40.7751 72.1755C41.059 72.1755 41.2904 72.1071 41.4692 71.9704C41.6586 71.8232 41.7532 71.6233 41.7532 71.3709C41.7532 71.0448 41.6007 70.7924 41.2957 70.6136C40.9907 70.4348 40.4963 70.235 39.8127 70.0141C39.0869 69.7722 38.4979 69.5408 38.0456 69.3199C37.6039 69.0885 37.2147 68.7572 36.8782 68.326C36.5521 67.8842 36.3891 67.311 36.3891 66.6063C36.3891 65.891 36.5679 65.281 36.9255 64.7761C37.2831 64.2608 37.7774 63.8716 38.4085 63.6087C39.0396 63.3457 39.7548 63.2142 40.5542 63.2142C41.8479 63.2142 42.8786 63.5193 43.6464 64.1293C44.4248 64.7288 44.8402 65.5755 44.8928 66.6694H41.5323C41.5218 66.3328 41.4166 66.0804 41.2168 65.9121C41.0275 65.7438 40.7803 65.6597 40.4753 65.6597C40.2439 65.6597 40.0546 65.728 39.9073 65.8648C39.7601 66.0015 39.6864 66.1961 39.6864 66.4485C39.6864 66.6589 39.7653 66.8429 39.9231 67.0007C40.0914 67.1479 40.2965 67.2794 40.5384 67.3951C40.7803 67.5003 41.1379 67.637 41.6112 67.8053C42.3159 68.0472 42.8944 68.2891 43.3467 68.5311C43.8095 68.7624 44.2039 69.0938 44.53 69.525C44.8665 69.9457 45.0348 70.4821 45.0348 71.1342C45.0348 71.7969 44.8665 72.3911 44.53 72.917C44.2039 73.4429 43.7253 73.8584 43.0943 74.1634C42.4737 74.4684 41.7374 74.6209 40.8855 74.6209ZM49.5646 63.3878V74.5105H46.4724V63.3878H49.5646Z" fill="#6E199F"/>
<path d="M58.4252 68.7993C59.0773 68.9465 59.5927 69.2726 59.9714 69.7774C60.3605 70.2718 60.5551 70.8397 60.5551 71.4813C60.5551 72.4279 60.229 73.1695 59.5769 73.7059C58.9248 74.2423 58.0098 74.5105 56.8317 74.5105H51.3256V63.3878H56.6582C57.7941 63.3878 58.6829 63.6402 59.3245 64.1451C59.9766 64.6499 60.3027 65.3599 60.3027 66.275C60.3027 66.9271 60.1291 67.474 59.782 67.9158C59.4455 68.347 58.9932 68.6415 58.4252 68.7993ZM54.4179 67.8053H55.9798C56.7581 67.8053 57.1473 67.4845 57.1473 66.8429C57.1473 66.1803 56.7581 65.849 55.9798 65.849H54.4179V67.8053ZM56.2164 72.0177C56.9948 72.0177 57.3839 71.6917 57.3839 71.0396C57.3839 70.703 57.2788 70.4453 57.0684 70.2665C56.8686 70.0877 56.5793 69.9983 56.2007 69.9983H54.4179V72.0177H56.2164ZM65.0026 65.8648V67.6791H68.5524V70.0299H65.0026V72.0335H69.0257V74.5105H61.9103V63.3878H69.0257V65.8648H65.0026ZM70.1751 68.9255C70.1751 67.8316 70.4012 66.8587 70.8535 66.0067C71.3163 65.1443 71.9684 64.4764 72.8098 64.0031C73.6512 63.5193 74.6189 63.2773 75.7128 63.2773C77.1011 63.2773 78.2686 63.6507 79.2152 64.3975C80.1619 65.1338 80.7719 66.1382 81.0454 67.4109H77.7164C77.5166 66.9902 77.2379 66.6694 76.8803 66.4485C76.5332 66.2276 76.1282 66.1172 75.6654 66.1172C74.9502 66.1172 74.377 66.3749 73.9457 66.8903C73.525 67.3951 73.3147 68.0735 73.3147 68.9255C73.3147 69.7879 73.525 70.4769 73.9457 70.9922C74.377 71.4971 74.9502 71.7495 75.6654 71.7495C76.1282 71.7495 76.5332 71.6391 76.8803 71.4182C77.2379 71.1973 77.5166 70.8766 77.7164 70.4558H81.0454C80.7719 71.7285 80.1619 72.7382 79.2152 73.485C78.2686 74.2213 77.1011 74.5894 75.7128 74.5894C74.6189 74.5894 73.6512 74.3527 72.8098 73.8794C71.9684 73.3956 71.3163 72.7277 70.8535 71.8758C70.4012 71.0133 70.1751 70.0299 70.1751 68.9255Z" fill="#E3AE3B"/>
<path d="M14.8714 79.6257L14.3808 78.7353H14.2431V79.6257H13.6685V77.267H14.6328C14.8188 77.267 14.9767 77.2995 15.1066 77.3645C15.2388 77.4294 15.3373 77.519 15.4023 77.6333C15.4672 77.7453 15.4997 77.8707 15.4997 78.0096C15.4997 78.1664 15.4549 78.3064 15.3653 78.4296C15.278 78.5528 15.148 78.6401 14.9756 78.6917L15.5199 79.6257H14.8714ZM14.2431 78.3288H14.5992C14.7045 78.3288 14.7829 78.303 14.8344 78.2515C14.8882 78.2 14.9151 78.1272 14.9151 78.0331C14.9151 77.9435 14.8882 77.8729 14.8344 77.8214C14.7829 77.7699 14.7045 77.7441 14.5992 77.7441H14.2431V78.3288ZM16.9759 79.6493C16.7542 79.6493 16.5503 79.5977 16.3644 79.4947C16.1807 79.3917 16.034 79.2483 15.9242 79.0646C15.8167 78.8787 15.763 78.6704 15.763 78.4397C15.763 78.2089 15.8167 78.0017 15.9242 77.8181C16.034 77.6344 16.1807 77.491 16.3644 77.388C16.5503 77.2849 16.7542 77.2334 16.9759 77.2334C17.1977 77.2334 17.4004 77.2849 17.5841 77.388C17.77 77.491 17.9156 77.6344 18.0209 77.8181C18.1284 78.0017 18.1822 78.2089 18.1822 78.4397C18.1822 78.6704 18.1284 78.8787 18.0209 79.0646C17.9134 79.2483 17.7678 79.3917 17.5841 79.4947C17.4004 79.5977 17.1977 79.6493 16.9759 79.6493ZM16.9759 79.1251C17.1641 79.1251 17.3142 79.0624 17.4262 78.9369C17.5404 78.8115 17.5975 78.6457 17.5975 78.4397C17.5975 78.2313 17.5404 78.0656 17.4262 77.9424C17.3142 77.8169 17.1641 77.7542 16.9759 77.7542C16.7855 77.7542 16.6332 77.8158 16.519 77.939C16.407 78.0622 16.351 78.2291 16.351 78.4397C16.351 78.648 16.407 78.8149 16.519 78.9403C16.6332 79.0635 16.7855 79.1251 16.9759 79.1251ZM19.3552 79.6493C19.1828 79.6493 19.0282 79.6213 18.8916 79.5653C18.7549 79.5093 18.6452 79.4264 18.5623 79.3166C18.4816 79.2069 18.4391 79.0747 18.4346 78.9201H19.0461C19.0551 79.0075 19.0853 79.0747 19.1368 79.1217C19.1884 79.1665 19.2556 79.1889 19.3384 79.1889C19.4236 79.1889 19.4908 79.1699 19.54 79.1318C19.5893 79.0915 19.614 79.0366 19.614 78.9672C19.614 78.9089 19.5938 78.8608 19.5535 78.8227C19.5154 78.7846 19.4672 78.7533 19.409 78.7286C19.353 78.704 19.2724 78.676 19.1671 78.6446C19.0148 78.5976 18.8904 78.5505 18.7941 78.5035C18.6978 78.4565 18.6149 78.387 18.5455 78.2952C18.476 78.2033 18.4413 78.0835 18.4413 77.9357C18.4413 77.7161 18.5208 77.5448 18.6799 77.4216C18.8389 77.2961 19.0461 77.2334 19.3015 77.2334C19.5613 77.2334 19.7708 77.2961 19.9298 77.4216C20.0888 77.5448 20.174 77.7173 20.1852 77.939H19.5636C19.5591 77.8629 19.5311 77.8035 19.4796 77.7609C19.428 77.7161 19.362 77.6937 19.2813 77.6937C19.2119 77.6937 19.1559 77.7128 19.1133 77.7509C19.0708 77.7867 19.0495 77.8393 19.0495 77.9088C19.0495 77.9849 19.0853 78.0443 19.157 78.0869C19.2287 78.1294 19.3407 78.1753 19.493 78.2246C19.6453 78.2761 19.7685 78.3254 19.8626 78.3725C19.9589 78.4195 20.0418 78.4878 20.1112 78.5774C20.1807 78.667 20.2154 78.7824 20.2154 78.9235C20.2154 79.0579 20.1807 79.18 20.1112 79.2897C20.044 79.3995 19.9455 79.4869 19.8156 79.5518C19.6856 79.6168 19.5322 79.6493 19.3552 79.6493ZM21.1436 77.7273V78.2045H21.913V78.648H21.1436V79.1654H22.0138V79.6257H20.569V77.267H22.0138V77.7273H21.1436ZM25.058 77.267V79.6257H24.4834V78.2112L23.9559 79.6257H23.4922L22.9614 78.2078V79.6257H22.3868V77.267H23.0655L23.7274 78.9L24.3826 77.267H25.058ZM26.9395 79.2091H26.0592L25.9181 79.6257H25.3166L26.1701 77.267H26.8353L27.6888 79.6257H27.0806L26.9395 79.2091ZM26.7917 78.7656L26.4993 77.9021L26.2104 78.7656H26.7917ZM29.1514 79.6257L28.6608 78.7353H28.5231V79.6257H27.9485V77.267H28.9128C29.0988 77.267 29.2567 77.2995 29.3866 77.3645C29.5188 77.4294 29.6173 77.519 29.6823 77.6333C29.7472 77.7453 29.7797 77.8707 29.7797 78.0096C29.7797 78.1664 29.7349 78.3064 29.6453 78.4296C29.558 78.5528 29.428 78.6401 29.2556 78.6917L29.7999 79.6257H29.1514ZM28.5231 78.3288H28.8792C28.9845 78.3288 29.0629 78.303 29.1144 78.2515C29.1682 78.2 29.1951 78.1272 29.1951 78.0331C29.1951 77.9435 29.1682 77.8729 29.1144 77.8214C29.0629 77.7699 28.9845 77.7441 28.8792 77.7441H28.5231V78.3288ZM32.1631 77.267L31.3466 78.8462V79.6257H30.7721V78.8462L29.9556 77.267H30.6074L31.0644 78.2549L31.518 77.267H32.1631ZM33.6812 77.267V79.6257H33.1067V77.267H33.6812ZM35.5256 78.4161C35.6622 78.4453 35.772 78.5136 35.8549 78.6211C35.9377 78.7264 35.9792 78.8473 35.9792 78.984C35.9792 79.1811 35.9097 79.3379 35.7709 79.4544C35.6342 79.5686 35.4427 79.6257 35.1963 79.6257H34.0976V77.267H35.1593C35.399 77.267 35.5861 77.3219 35.7205 77.4317C35.8571 77.5414 35.9254 77.6904 35.9254 77.8785C35.9254 78.0174 35.8885 78.1328 35.8145 78.2246C35.7429 78.3165 35.6465 78.3803 35.5256 78.4161ZM34.6721 78.2213H35.0485C35.1425 78.2213 35.2142 78.2011 35.2635 78.1608C35.315 78.1182 35.3408 78.0566 35.3408 77.976C35.3408 77.8953 35.315 77.8337 35.2635 77.7912C35.2142 77.7486 35.1425 77.7273 35.0485 77.7273H34.6721V78.2213ZM35.0955 79.1621C35.1918 79.1621 35.2657 79.1408 35.3173 79.0982C35.371 79.0534 35.3979 78.9896 35.3979 78.9067C35.3979 78.8238 35.3699 78.7589 35.3139 78.7118C35.2601 78.6648 35.1851 78.6413 35.0888 78.6413H34.6721V79.1621H35.0955ZM36.887 77.7273V78.2045H37.6564V78.648H36.887V79.1654H37.7572V79.6257H36.3124V77.267H37.7572V77.7273H36.887ZM39.6086 77.267V78.8731C39.6086 79.1217 39.5381 79.3133 39.397 79.4477C39.2581 79.5821 39.0699 79.6493 38.8325 79.6493C38.5838 79.6493 38.3845 79.5787 38.2344 79.4376C38.0843 79.2965 38.0093 79.096 38.0093 78.8361H38.5805C38.5805 78.9347 38.6006 79.0097 38.641 79.0613C38.6813 79.1105 38.7395 79.1352 38.8157 79.1352C38.8851 79.1352 38.9389 79.1128 38.977 79.068C39.015 79.0232 39.0341 78.9582 39.0341 78.8731V77.267H39.6086ZM40.6473 77.267V79.6257H40.0727V77.267H40.6473ZM41.6783 78.443C41.6783 78.2101 41.7287 78.0029 41.8295 77.8214C41.9303 77.6377 42.0703 77.4955 42.2495 77.3947C42.4309 77.2917 42.6359 77.2401 42.8644 77.2401C43.1444 77.2401 43.384 77.3141 43.5834 77.4619C43.7828 77.6097 43.916 77.8113 43.9832 78.0667H43.3516C43.3045 77.9681 43.2373 77.8931 43.15 77.8416C43.0648 77.7901 42.9674 77.7643 42.8576 77.7643C42.6807 77.7643 42.5373 77.8259 42.4276 77.9491C42.3178 78.0723 42.2629 78.2369 42.2629 78.443C42.2629 78.6491 42.3178 78.8137 42.4276 78.9369C42.5373 79.0601 42.6807 79.1217 42.8576 79.1217C42.9674 79.1217 43.0648 79.096 43.15 79.0445C43.2373 78.9929 43.3045 78.9179 43.3516 78.8193H43.9832C43.916 79.0747 43.7828 79.2763 43.5834 79.4241C43.384 79.5697 43.1444 79.6425 42.8644 79.6425C42.6359 79.6425 42.4309 79.5921 42.2495 79.4913C42.0703 79.3883 41.9303 79.2461 41.8295 79.0646C41.7287 78.8832 41.6783 78.676 41.6783 78.443ZM45.8034 79.2091H44.9231L44.782 79.6257H44.1805L45.034 77.267H45.6992L46.5527 79.6257H45.9445L45.8034 79.2091ZM45.6556 78.7656L45.3632 77.9021L45.0743 78.7656H45.6556ZM48.0153 79.6257L47.5248 78.7353H47.387V79.6257H46.8124V77.267H47.7768C47.9627 77.267 48.1206 77.2995 48.2505 77.3645C48.3827 77.4294 48.4812 77.519 48.5462 77.6333C48.6112 77.7453 48.6436 77.8707 48.6436 78.0096C48.6436 78.1664 48.5988 78.3064 48.5092 78.4296C48.4219 78.5528 48.292 78.6401 48.1195 78.6917L48.6638 79.6257H48.0153ZM47.387 78.3288H47.7432C47.8484 78.3288 47.9268 78.303 47.9784 78.2515C48.0321 78.2 48.059 78.1272 48.059 78.0331C48.059 77.9435 48.0321 77.8729 47.9784 77.8214C47.9268 77.7699 47.8484 77.7441 47.7432 77.7441H47.387V78.3288ZM49.5789 77.7273V78.2045H50.3483V78.648H49.5789V79.1654H50.4491V79.6257H49.0043V77.267H50.4491V77.7273H49.5789ZM53.0697 77.267V77.7273H52.1087V78.2246H52.8278V78.6715H52.1087V79.6257H51.5342V77.267H53.0697ZM54.4872 79.6493C54.2654 79.6493 54.0616 79.5977 53.8757 79.4947C53.692 79.3917 53.5453 79.2483 53.4355 79.0646C53.328 78.8787 53.2742 78.6704 53.2742 78.4397C53.2742 78.2089 53.328 78.0017 53.4355 77.8181C53.5453 77.6344 53.692 77.491 53.8757 77.388C54.0616 77.2849 54.2654 77.2334 54.4872 77.2334C54.7089 77.2334 54.9117 77.2849 55.0953 77.388C55.2813 77.491 55.4269 77.6344 55.5321 77.8181C55.6397 78.0017 55.6934 78.2089 55.6934 78.4397C55.6934 78.6704 55.6397 78.8787 55.5321 79.0646C55.4246 79.2483 55.279 79.3917 55.0953 79.4947C54.9117 79.5977 54.7089 79.6493 54.4872 79.6493ZM54.4872 79.1251C54.6753 79.1251 54.8254 79.0624 54.9374 78.9369C55.0517 78.8115 55.1088 78.6457 55.1088 78.4397C55.1088 78.2313 55.0517 78.0656 54.9374 77.9424C54.8254 77.8169 54.6753 77.7542 54.4872 77.7542C54.2968 77.7542 54.1445 77.8158 54.0302 77.939C53.9182 78.0622 53.8622 78.2291 53.8622 78.4397C53.8622 78.648 53.9182 78.8149 54.0302 78.9403C54.1445 79.0635 54.2968 79.1251 54.4872 79.1251ZM56.5775 77.267V78.6782C56.5775 78.8193 56.6123 78.928 56.6817 79.0041C56.7511 79.0803 56.8531 79.1184 56.9875 79.1184C57.1219 79.1184 57.2249 79.0803 57.2966 79.0041C57.3683 78.928 57.4041 78.8193 57.4041 78.6782V77.267H57.9787V78.6749C57.9787 78.8854 57.9339 79.0635 57.8443 79.2091C57.7547 79.3547 57.6337 79.4645 57.4814 79.5384C57.3313 79.6123 57.1633 79.6493 56.9774 79.6493C56.7915 79.6493 56.6246 79.6134 56.4767 79.5417C56.3311 79.4678 56.2158 79.3581 56.1307 79.2125C56.0455 79.0646 56.003 78.8854 56.003 78.6749V77.267H56.5775ZM60.4922 79.6257H59.9176L58.9567 78.1709V79.6257H58.3821V77.267H58.9567L59.9176 78.7286V77.267H60.4922V79.6257ZM61.7924 77.267C62.041 77.267 62.2583 77.3163 62.4442 77.4149C62.6301 77.5134 62.7735 77.6523 62.8743 77.8315C62.9773 78.0085 63.0288 78.2134 63.0288 78.4464C63.0288 78.6771 62.9773 78.8821 62.8743 79.0613C62.7735 79.2405 62.629 79.3793 62.4408 79.4779C62.2549 79.5765 62.0388 79.6257 61.7924 79.6257H60.9087V77.267H61.7924ZM61.7554 79.1285C61.9727 79.1285 62.1418 79.0691 62.2628 78.9504C62.3837 78.8317 62.4442 78.6637 62.4442 78.4464C62.4442 78.2291 62.3837 78.06 62.2628 77.939C62.1418 77.8181 61.9727 77.7576 61.7554 77.7576H61.4832V79.1285H61.7554ZM64.8183 79.2091H63.9379L63.7968 79.6257H63.1954L64.0488 77.267H64.7141L65.5675 79.6257H64.9594L64.8183 79.2091ZM64.6704 78.7656L64.3781 77.9021L64.0891 78.7656H64.6704ZM67.5241 77.267V77.7273H66.8991V79.6257H66.3246V77.7273H65.6996V77.267H67.5241ZM68.387 77.267V79.6257H67.8124V77.267H68.387ZM69.9189 79.6493C69.6971 79.6493 69.4933 79.5977 69.3074 79.4947C69.1237 79.3917 68.977 79.2483 68.8672 79.0646C68.7597 78.8787 68.7059 78.6704 68.7059 78.4397C68.7059 78.2089 68.7597 78.0017 68.8672 77.8181C68.977 77.6344 69.1237 77.491 69.3074 77.388C69.4933 77.2849 69.6971 77.2334 69.9189 77.2334C70.1407 77.2334 70.3434 77.2849 70.5271 77.388C70.713 77.491 70.8586 77.6344 70.9639 77.8181C71.0714 78.0017 71.1251 78.2089 71.1251 78.4397C71.1251 78.6704 71.0714 78.8787 70.9639 79.0646C70.8563 79.2483 70.7107 79.3917 70.5271 79.4947C70.3434 79.5977 70.1407 79.6493 69.9189 79.6493ZM69.9189 79.1251C70.1071 79.1251 70.2571 79.0624 70.3691 78.9369C70.4834 78.8115 70.5405 78.6457 70.5405 78.4397C70.5405 78.2313 70.4834 78.0656 70.3691 77.9424C70.2571 77.8169 70.1071 77.7542 69.9189 77.7542C69.7285 77.7542 69.5762 77.8158 69.4619 77.939C69.3499 78.0622 69.2939 78.2291 69.2939 78.4397C69.2939 78.648 69.3499 78.8149 69.4619 78.9403C69.5762 79.0635 69.7285 79.1251 69.9189 79.1251ZM73.5549 79.6257H72.9803L72.0193 78.1709V79.6257H71.4448V77.267H72.0193L72.9803 78.7286V77.267H73.5549V79.6257Z" fill="#6E199F"/>
</svg>
